<svg width="88" height="112" viewBox="0 0 88 112" fill="none" xmlns="http://www.w3.org/2000/svg">
<path d="M0 93.3267L16.0611 76.7496C18.93 79.7032 22.7713 82.5882 27.5728 85.4388C32.3743 88.278 37.9801 89.6976 44.3781 89.6976C46.9109 89.6976 49.3957 89.2511 51.8325 88.3582C54.2572 87.4652 56.2739 86.1486 57.8704 84.4085C59.4669 82.6684 60.2712 80.5962 60.2712 78.1691C60.2712 74.2767 58.2905 71.22 54.3052 69.0105C50.332 66.801 44.042 64.6945 35.4233 62.691C27.0326 60.6876 20.0824 57.1615 14.5606 52.1128C9.03888 47.064 6.27797 40.5271 6.27797 32.5361C6.27797 26.6402 7.76648 21.2481 10.7434 16.3482C13.7204 11.4483 18.1978 7.5101 24.1517 4.49919C30.1176 1.49973 37.62 0 46.6708 0C54.1732 0 60.4992 0.927314 65.6248 2.75905C70.7625 4.60223 74.8678 6.62858 77.9648 8.8381C81.0498 11.0476 83.2104 12.845 84.4228 14.2074L70.0182 29.3649C67.5935 27.579 64.3885 25.5527 60.4152 23.2859C56.4419 21.0191 51.7484 19.8857 46.3467 19.8857C42.8176 19.8857 39.5286 20.8588 36.4916 22.8051C33.4547 24.7513 31.9421 27.0982 31.9421 29.8343C31.9421 33.4177 33.9348 36.3141 37.9081 38.5236C41.8813 40.7331 47.343 42.5763 54.3052 44.0532C59.7069 45.3125 64.9287 47.2129 69.9583 49.743C74.9758 52.273 79.0931 55.7991 82.2981 60.3212C85.5031 64.8433 87.0997 70.7392 87.0997 78.0089C87.0997 84.3283 85.2151 89.9609 81.4699 94.9066C77.7127 99.8523 72.6351 103.745 66.237 106.595C59.839 109.435 52.6607 110.854 44.7142 110.854C37.4279 110.854 30.9698 110.007 25.34 108.324C19.7102 106.641 14.8007 104.455 10.5994 101.776C6.39805 99.0852 2.86891 96.2804 0 93.3267Z" fill="black"/>
<path d="M55.4927 80.4138C54.7606 90.9635 49.6456 98.9734 49.6456 98.9734C46.2219 104.339 41.6704 108.639 39.0002 110.5C41.6978 111.084 45.0402 111.184 49.5002 111C55.3373 110.761 60.69 108.887 63.0434 108.037C67.8076 106.33 71.442 104.063 73.9312 102.226C73.4287 98.511 72.5293 92.9727 70.8931 86.1178C70.6729 85.1979 70.5681 84.7342 70.4057 84.1213C67.0137 71.8378 59.9847 62.1548 59.9847 62.1548C56.3662 57.8007 51.6141 52.8027 45.5267 47.8861C40.9301 44.177 36.4856 41.246 32.5001 38.9335C47.6362 50.2874 56.4785 66.1327 55.4868 80.3942L55.4927 80.4138Z" fill="url(#paint0_linear_182_1497)"/>
<path d="M46.731 44.7869C46.2891 45.2382 61.7588 56.1218 70.8606 77.2819C74.5366 85.8208 75.7501 94.5789 76.4995 100.23C77.2579 99.5652 78.6745 98.1706 79.4998 97.2298C80.3707 96.2413 81.4191 95.1022 81.9999 94.2299C80.6107 89.0974 77.706 81.9602 73.5747 74.427C62.7936 54.7816 47.1548 44.3323 46.7235 44.7763L46.731 44.7869Z" fill="url(#paint1_linear_182_1497)"/>
<defs>
<linearGradient id="paint0_linear_182_1497" x1="83.4561" y1="47.8613" x2="9.39795" y2="85.2211" gradientUnits="userSpaceOnUse">
<stop stop-color="#8B5CF6"/>
<stop offset="0.418269" stop-color="#7A67F2"/>
<stop offset="0.572115" stop-color="#4989E5"/>
<stop offset="1" stop-color="#06B6D4"/>
</linearGradient>
<linearGradient id="paint1_linear_182_1497" x1="88.8921" y1="52.4087" x2="33.7379" y2="85.7898" gradientUnits="userSpaceOnUse">
<stop stop-color="#8B5CF6"/>
<stop offset="0.418269" stop-color="#7A67F2"/>
<stop offset="0.572115" stop-color="#4989E5"/>
<stop offset="1" stop-color="#06B6D4"/>
</linearGradient>
</defs>
</svg>
